<svg width="2453" height="512" viewBox="0 0 2453 512" fill="none" xmlns="http://www.w3.org/2000/svg">
<path d="M2015.98 74.9809L2197 210.745L2453 0L2294.78 256L2378.02 437.02L2197 301.255L1941 512L2099.22 256L2015.98 74.9809Z" fill="white"/>
<path d="M31.5 364V154H56.1L150.3 312.7H137.1L230.1 154H254.7L255 364H226.2L225.9 199.3H232.8L150 338.5H136.2L52.8 199.3H60.3V364H31.5ZM420.023 366.4C392.423 366.4 370.723 358.5 354.923 342.7C339.123 326.9 331.223 303.8 331.223 273.4V154H361.223V272.2C361.223 295.6 366.323 312.7 376.523 323.5C386.923 334.3 401.523 339.7 420.323 339.7C439.323 339.7 453.923 334.3 464.123 323.5C474.523 312.7 479.723 295.6 479.723 272.2V154H508.823V273.4C508.823 303.8 500.923 326.9 485.123 342.7C469.523 358.5 447.823 366.4 420.023 366.4ZM585.328 364V154H673.828C696.228 154 715.928 158.4 732.928 167.2C750.128 176 763.428 188.3 772.828 204.1C782.428 219.9 787.228 238.2 787.228 259C787.228 279.8 782.428 298.1 772.828 313.9C763.428 329.7 750.128 342 732.928 350.8C715.928 359.6 696.228 364 673.828 364H585.328ZM615.328 337.9H672.028C689.428 337.9 704.428 334.6 717.028 328C729.828 321.4 739.728 312.2 746.728 300.4C753.728 288.4 757.228 274.6 757.228 259C757.228 243.2 753.728 229.4 746.728 217.6C739.728 205.8 729.828 196.6 717.028 190C704.428 183.4 689.428 180.1 672.028 180.1H615.328V337.9ZM813.45 364L908.55 154H938.25L1033.65 364H1002.15L917.25 170.8H929.25L844.35 364H813.45ZM853.95 311.5L862.05 287.5H980.25L988.95 311.5H853.95ZM1079.98 364V154H1104.58L1243.48 326.5H1230.58V154H1260.58V364H1235.98L1097.08 191.5H1109.98V364H1079.98ZM1319.83 364V343.6L1461.13 168.4L1464.43 180.1H1321.93V154H1491.43V174.4L1350.73 349.6L1347.13 337.9H1495.33V364H1319.83ZM1518.8 364L1613.9 154H1643.6L1739 364H1707.5L1622.6 170.8H1634.6L1549.7 364H1518.8ZM1559.3 311.5L1567.4 287.5H1685.6L1694.3 311.5H1559.3ZM1846.53 366.4C1830.53 366.4 1815.23 364 1800.63 359.2C1786.03 354.2 1774.53 347.8 1766.13 340L1777.23 316.6C1785.23 323.6 1795.43 329.4 1807.83 334C1820.23 338.6 1833.13 340.9 1846.53 340.9C1858.73 340.9 1868.63 339.5 1876.23 336.7C1883.83 333.9 1889.43 330.1 1893.03 325.3C1896.63 320.3 1898.43 314.7 1898.43 308.5C1898.43 301.3 1896.03 295.5 1891.23 291.1C1886.63 286.7 1880.53 283.2 1872.93 280.6C1865.53 277.8 1857.33 275.4 1848.33 273.4C1839.33 271.4 1830.23 269.1 1821.03 266.5C1812.03 263.7 1803.73 260.2 1796.13 256C1788.73 251.8 1782.73 246.2 1778.13 239.2C1773.53 232 1771.23 222.8 1771.23 211.6C1771.23 200.8 1774.03 190.9 1779.63 181.9C1785.43 172.7 1794.23 165.4 1806.03 160C1818.03 154.4 1833.23 151.6 1851.63 151.6C1863.83 151.6 1875.93 153.2 1887.93 156.4C1899.93 159.6 1910.33 164.2 1919.13 170.2L1909.23 194.2C1900.23 188.2 1890.73 183.9 1880.73 181.3C1870.73 178.5 1861.03 177.1 1851.63 177.1C1839.83 177.1 1830.13 178.6 1822.53 181.6C1814.93 184.6 1809.33 188.6 1805.73 193.6C1802.33 198.6 1800.63 204.2 1800.63 210.4C1800.63 217.8 1802.93 223.7 1807.53 228.1C1812.33 232.5 1818.43 236 1825.83 238.6C1833.43 241.2 1841.73 243.6 1850.73 245.8C1859.73 247.8 1868.73 250.1 1877.73 252.7C1886.93 255.3 1895.23 258.7 1902.63 262.9C1910.23 267.1 1916.33 272.7 1920.93 279.7C1925.53 286.7 1927.83 295.7 1927.83 306.7C1927.83 317.3 1924.93 327.2 1919.13 336.4C1913.33 345.4 1904.33 352.7 1892.13 358.3C1880.13 363.7 1864.93 366.4 1846.53 366.4Z" fill="white"/>
</svg>
